<?xml version="1.0" encoding="UTF-8" standalone="no"?>
<!-- Created with Inkscape (http://www.inkscape.org/) -->

<svg
   xmlns:dc="http://purl.org/dc/elements/1.1/"
   xmlns:cc="http://creativecommons.org/ns#"
   xmlns:rdf="http://www.w3.org/1999/02/22-rdf-syntax-ns#"
   xmlns:svg="http://www.w3.org/2000/svg"
   xmlns="http://www.w3.org/2000/svg"
   xmlns:sodipodi="http://sodipodi.sourceforge.net/DTD/sodipodi-0.dtd"
   xmlns:inkscape="http://www.inkscape.org/namespaces/inkscape"
   width="353.02643"
   height="62.403091"
   id="svg2"
   version="1.1"
   inkscape:version="0.48.5 r10040"
   sodipodi:docname="InfixToPrefix&amp;PrefixToObject.svg">
  <defs
     id="defs4">
    <marker
       inkscape:stockid="Arrow1Lend"
       orient="auto"
       refY="0"
       refX="0"
       id="Arrow1Lend"
       style="overflow:visible">
      <path
         id="path3792"
         d="M 0,0 5,-5 -12.5,0 5,5 0,0 z"
         style="fill-rule:evenodd;stroke:#000000;stroke-width:1pt"
         transform="matrix(-0.8,0,0,-0.8,-10,0)"
         inkscape:connector-curvature="0" />
    </marker>
  </defs>
  <sodipodi:namedview
     id="base"
     pagecolor="#ffffff"
     bordercolor="#666666"
     borderopacity="1.0"
     inkscape:pageopacity="0.0"
     inkscape:pageshadow="2"
     inkscape:zoom="1.24"
     inkscape:cx="219.36781"
     inkscape:cy="-75.480478"
     inkscape:document-units="px"
     inkscape:current-layer="layer1"
     showgrid="false"
     inkscape:snap-page="true"
     inkscape:window-width="1366"
     inkscape:window-height="702"
     inkscape:window-x="0"
     inkscape:window-y="27"
     inkscape:window-maximized="1"
     fit-margin-top="0"
     fit-margin-left="0"
     fit-margin-right="0"
     fit-margin-bottom="0" />
  <metadata
     id="metadata7">
    <rdf:RDF>
      <cc:Work
         rdf:about="">
        <dc:format>image/svg+xml</dc:format>
        <dc:type
           rdf:resource="http://purl.org/dc/dcmitype/StillImage" />
        <dc:title></dc:title>
      </cc:Work>
    </rdf:RDF>
  </metadata>
  <g
     inkscape:label="Layer 1"
     inkscape:groupmode="layer"
     id="layer1"
     transform="translate(-187.89025,-13.096126)">
    <rect
       style="fill:#ffffff;fill-opacity:1;stroke:#000000;stroke-width:1.10276258;stroke-opacity:1"
       id="rect2985"
       width="142.20354"
       height="61.290321"
       x="188.44164"
       y="13.652505" />
    <rect
       style="fill:#ffffff;fill-opacity:1;stroke:#000000;stroke-width:1.11276841;stroke-opacity:1"
       id="rect2985-3"
       width="144.79579"
       height="61.290321"
       x="395.56451"
       y="13.652511" />
    <g
       style="font-size:20px;font-style:normal;font-weight:normal;line-height:125%;letter-spacing:0px;word-spacing:0px;fill:#000000;fill-opacity:1;stroke:none;font-family:Sans"
       id="text3773">
      <path
         d="m 202.32265,37.790295 0,5.478515 2.48047,0 c 0.91796,8e-6 1.62759,-0.237622 2.1289,-0.71289 0.5013,-0.475252 0.75195,-1.152335 0.75196,-2.03125 -1e-5,-0.872385 -0.25066,-1.546213 -0.75196,-2.021485 -0.50131,-0.475247 -1.21094,-0.712877 -2.1289,-0.71289 l -2.48047,0 m -1.97266,-1.621094 4.45313,0 c 1.6341,1.4e-5 2.86783,0.371108 3.70117,1.113281 0.83983,0.73569 1.25975,1.816418 1.25976,3.242188 -1e-5,1.438811 -0.41993,2.526049 -1.25976,3.261718 -0.83334,0.735684 -2.06707,1.103522 -3.70117,1.103516 l -2.48047,0 0,5.859375 -1.97266,0 0,-14.580078"
         style=""
         id="path4249" />
      <path
         d="m 218.32851,41.491467 c -0.20183,-0.117179 -0.42319,-0.201814 -0.66407,-0.253907 -0.23438,-0.05858 -0.49479,-0.08788 -0.78125,-0.08789 -1.01563,9e-6 -1.79688,0.33204 -2.34375,0.996093 -0.54036,0.65756 -0.81055,1.604825 -0.81054,2.841797 l 0,5.761719 -1.80664,0 0,-10.9375 1.80664,0 0,1.699219 c 0.3776,-0.664053 0.86913,-1.155589 1.47461,-1.47461 0.60546,-0.325509 1.34114,-0.48827 2.20703,-0.488281 0.12369,1.1e-5 0.26041,0.0098 0.41015,0.0293 0.14974,0.01303 0.31575,0.03582 0.49805,0.06836 l 0.01,1.845704"
         style=""
         id="path4251" />
      <path
         d="m 229.15858,44.83131 0,0.878907 -8.26171,0 c 0.0781,1.236982 0.44921,2.180992 1.11328,2.832031 0.67057,0.644533 1.60155,0.966798 2.79297,0.966797 0.69009,10e-7 1.35741,-0.08463 2.00195,-0.253907 0.65103,-0.169269 1.29556,-0.423175 1.93359,-0.761718 l 0,1.699218 c -0.64454,0.273438 -1.30535,0.481771 -1.98242,0.625 -0.67709,0.143229 -1.36394,0.214844 -2.06055,0.214844 -1.74479,0 -3.12825,-0.507812 -4.15039,-1.523437 -1.01562,-1.015623 -1.52344,-2.38932 -1.52343,-4.121094 -1e-5,-1.790358 0.48177,-3.209627 1.44531,-4.257813 0.97005,-1.054676 2.27538,-1.58202 3.91601,-1.582031 1.47135,1.1e-5 2.63346,0.475271 3.48633,1.425781 0.85937,0.94402 1.28905,2.229826 1.28906,3.857422 m -1.79687,-0.527343 c -0.013,-0.983066 -0.28972,-1.76757 -0.83008,-2.353516 -0.53386,-0.585928 -1.2435,-0.878897 -2.1289,-0.878906 -1.00261,9e-6 -1.80665,0.283212 -2.41211,0.849609 -0.59897,0.566415 -0.94402,1.36394 -1.03516,2.392578 l 6.40625,-0.0098"
         style=""
         id="path4253" />
      <path
         d="m 240.94569,39.811779 0,10.9375 -1.80664,0 0,-9.541016 -4.93164,0 0,9.541016 -1.80664,0 0,-9.541016 -1.71875,0 0,-1.396484 1.71875,0 0,-0.761719 c 0,-1.191393 0.27995,-2.070298 0.83985,-2.636718 0.5664,-0.572902 1.43228,-0.85936 2.59765,-0.859375 l 1.80664,0 0,1.49414 -1.71875,0 c -0.64453,1.4e-5 -1.09375,0.130222 -1.34765,0.390625 -0.2474,0.26043 -0.3711,0.729179 -0.3711,1.40625 l 0,0.966797 6.73828,0 m -1.80664,-4.238281 1.80664,0 0,2.27539 -1.80664,0 0,-2.27539"
         style=""
         id="path4255" />
      <path
         d="m 253.81679,39.811779 -3.95508,5.322266 4.16016,5.615234 -2.11914,0 -3.1836,-4.296875 -3.18359,4.296875 -2.11914,0 4.24804,-5.722656 -3.88671,-5.214844 2.11914,0 2.90039,3.896484 2.90039,-3.896484 2.11914,0"
         style=""
         id="path4257" />
      <path
         d="m 254.61757,36.169201 12.33398,0 0,1.660156 -5.17578,0 0,12.919922 -1.98242,0 0,-12.919922 -5.17578,0 0,-1.660156"
         style=""
         id="path4259" />
      <path
         d="m 269.62733,41.071545 c -0.96354,9e-6 -1.72526,0.377613 -2.28515,1.132812 -0.5599,0.748706 -0.83985,1.777351 -0.83985,3.085938 0,1.308598 0.27669,2.340498 0.83008,3.095703 0.55989,0.748699 1.32487,1.123048 2.29492,1.123047 0.95703,10e-7 1.71549,-0.377603 2.2754,-1.132813 0.55988,-0.755205 0.83983,-1.78385 0.83984,-3.085937 -10e-6,-1.295567 -0.27996,-2.320956 -0.83984,-3.076172 -0.55991,-0.76171 -1.31837,-1.142569 -2.2754,-1.142578 m 0,-1.523438 c 1.5625,1.1e-5 2.78971,0.507823 3.68165,1.523438 0.89191,1.015633 1.33787,2.421882 1.33789,4.21875 -2e-5,1.790368 -0.44598,3.196616 -1.33789,4.21875 -0.89194,1.015625 -2.11915,1.523437 -3.68165,1.523437 -1.56901,0 -2.79948,-0.507812 -3.6914,-1.523437 -0.88542,-1.022134 -1.32813,-2.428382 -1.32813,-4.21875 0,-1.796868 0.44271,-3.203117 1.32813,-4.21875 0.89192,-1.015615 2.12239,-1.523427 3.6914,-1.523438"
         style=""
         id="path4261" />
      <path
         d="m 277.69374,36.169201 1.97266,0 0,14.580078 -1.97266,0 0,-14.580078"
         style=""
         id="path4263" />
      <path
         d="m 292.60585,44.147717 0,6.601562 -1.79687,0 0,-6.542969 c -1e-5,-1.035148 -0.20184,-1.809887 -0.60547,-2.324218 -0.40366,-0.514314 -1.00913,-0.771475 -1.81641,-0.771485 -0.97006,10e-6 -1.73503,0.309254 -2.29492,0.927735 -0.5599,0.618497 -0.83985,1.461595 -0.83985,2.529296 l 0,6.181641 -1.80664,0 0,-10.9375 1.80664,0 0,1.699219 c 0.42969,-0.657542 0.93424,-1.149078 1.51368,-1.47461 0.58593,-0.325509 1.25976,-0.48827 2.02148,-0.488281 1.2565,1.1e-5 2.20702,0.390636 2.85156,1.171875 0.64452,0.774749 0.96679,1.917326 0.9668,3.427735"
         style=""
         id="path4265" />
      <path
         d="m 305.04726,39.811779 0,10.9375 -1.80664,0 0,-9.541016 -4.93164,0 0,9.541016 -1.80665,0 0,-9.541016 -1.71875,0 0,-1.396484 1.71875,0 0,-0.761719 c 0,-1.191393 0.27995,-2.070298 0.83985,-2.636718 0.5664,-0.572902 1.43229,-0.85936 2.59765,-0.859375 l 1.80665,0 0,1.49414 -1.71875,0 c -0.64454,1.4e-5 -1.09376,0.130222 -1.34766,0.390625 -0.2474,0.26043 -0.3711,0.729179 -0.37109,1.40625 l 0,0.966797 6.73828,0 m -1.80664,-4.238281 1.80664,0 0,2.27539 -1.80664,0 0,-2.27539"
         style=""
         id="path4267" />
      <path
         d="m 317.91835,39.811779 -3.95508,5.322266 4.16016,5.615234 -2.11914,0 -3.1836,-4.296875 -3.18359,4.296875 -2.11914,0 4.24805,-5.722656 -3.88672,-5.214844 2.11914,0 2.90039,3.896484 2.90039,-3.896484 2.11914,0"
         style=""
         id="path4269" />
    </g>
    <g
       style="font-size:20px;font-style:normal;font-weight:normal;line-height:125%;letter-spacing:0px;word-spacing:0px;fill:#000000;fill-opacity:1;stroke:none;font-family:Sans"
       id="text3777">
      <path
         d="m 405.18869,33.749844 1.97266,0 0,14.580078 -1.97266,0 0,-14.580078"
         style=""
         id="path4272" />
      <path
         d="m 420.1008,41.728359 0,6.601563 -1.79688,0 0,-6.542969 c 0,-1.035149 -0.20183,-1.809888 -0.60546,-2.324219 -0.40366,-0.514313 -1.00913,-0.771475 -1.81641,-0.771484 -0.97006,9e-6 -1.73503,0.309254 -2.29492,0.927734 -0.5599,0.618498 -0.83985,1.461596 -0.83985,2.529297 l 0,6.181641 -1.80664,0 0,-10.9375 1.80664,0 0,1.699218 c 0.42969,-0.657542 0.93424,-1.149078 1.51368,-1.474609 0.58593,-0.32551 1.25976,-0.48827 2.02148,-0.488281 1.2565,1.1e-5 2.20702,0.390636 2.85156,1.171875 0.64452,0.774749 0.96679,1.917326 0.9668,3.427734"
         style=""
         id="path4274" />
      <path
         d="m 432.54221,37.392422 0,10.9375 -1.80664,0 0,-9.541016 -4.93165,0 0,9.541016 -1.80664,0 0,-9.541016 -1.71875,0 0,-1.396484 1.71875,0 0,-0.761719 c 0,-1.191393 0.27995,-2.070299 0.83985,-2.636719 0.5664,-0.572902 1.43228,-0.85936 2.59765,-0.859375 l 1.80664,0 0,1.494141 -1.71875,0 c -0.64453,1.4e-5 -1.09375,0.130222 -1.34765,0.390625 -0.2474,0.26043 -0.3711,0.729179 -0.3711,1.40625 l 0,0.966797 6.73829,0 m -1.80664,-4.238282 1.80664,0 0,2.275391 -1.80664,0 0,-2.275391"
         style=""
         id="path4276" />
      <path
         d="m 445.4133,37.392422 -3.95508,5.322265 4.16016,5.615235 -2.11914,0 -3.1836,-4.296875 -3.18359,4.296875 -2.11914,0 4.24805,-5.722657 -3.88672,-5.214843 2.11914,0 2.90039,3.896484 2.90039,-3.896484 2.11914,0"
         style=""
         id="path4278" />
      <path
         d="m 446.21408,33.749844 12.33399,0 0,1.660156 -5.17579,0 0,12.919922 -1.98242,0 0,-12.919922 -5.17578,0 0,-1.660156"
         style=""
         id="path4280" />
      <path
         d="m 461.22385,38.652187 c -0.96355,1e-5 -1.72527,0.377614 -2.28516,1.132813 -0.5599,0.748706 -0.83985,1.77735 -0.83984,3.085937 -1e-5,1.308598 0.27669,2.340498 0.83007,3.095703 0.5599,0.7487 1.32487,1.123049 2.29493,1.123047 0.95702,2e-6 1.71548,-0.377602 2.27539,-1.132812 0.55988,-0.755205 0.83983,-1.78385 0.83984,-3.085938 -1e-5,-1.295566 -0.27996,-2.320955 -0.83984,-3.076172 -0.55991,-0.761709 -1.31837,-1.142568 -2.27539,-1.142578 m 0,-1.523437 c 1.56249,1.1e-5 2.7897,0.507823 3.68164,1.523437 0.89191,1.015634 1.33788,2.421883 1.33789,4.21875 -10e-6,1.790369 -0.44598,3.196617 -1.33789,4.21875 -0.89194,1.015626 -2.11915,1.523438 -3.68164,1.523438 -1.56902,0 -2.79949,-0.507812 -3.69141,-1.523438 -0.88542,-1.022133 -1.32813,-2.428381 -1.32812,-4.21875 -10e-6,-1.796867 0.4427,-3.203116 1.32812,-4.21875 0.89192,-1.015614 2.12239,-1.523426 3.69141,-1.523437"
         style=""
         id="path4282" />
      <path
         d="m 475.20822,35.087734 c -1.4323,1.3e-5 -2.57162,0.533867 -3.41797,1.601563 -0.83984,1.067719 -1.25977,2.522795 -1.25976,4.365234 -10e-6,1.835943 0.41992,3.287765 1.25976,4.355469 0.84635,1.06771 1.98567,1.601564 3.41797,1.601562 1.43228,2e-6 2.5651,-0.533852 3.39844,-1.601562 0.83983,-1.067704 1.25975,-2.519526 1.25976,-4.355469 -1e-5,-1.842439 -0.41993,-3.297515 -1.25976,-4.365234 -0.83334,-1.067696 -1.96616,-1.60155 -3.39844,-1.601563 m 0,-1.601562 c 2.04426,1.5e-5 3.67838,0.686863 4.90235,2.060547 1.22394,1.367199 1.83592,3.203134 1.83593,5.507812 -1e-5,2.298182 -0.61199,4.134118 -1.83593,5.507813 -1.22397,1.367187 -2.85809,2.050781 -4.90235,2.050781 -2.05079,0 -3.69141,-0.683594 -4.92187,-2.050781 -1.22396,-1.367185 -1.83594,-3.20312 -1.83594,-5.507813 0,-2.304678 0.61198,-4.140613 1.83594,-5.507812 1.23046,-1.373684 2.87108,-2.060532 4.92187,-2.060547"
         style=""
         id="path4284" />
      <path
         d="m 492.80588,42.870937 c -10e-6,-1.321607 -0.27345,-2.356763 -0.82031,-3.105468 -0.54038,-0.755199 -1.28582,-1.132803 -2.23633,-1.132813 -0.95053,1e-5 -1.69923,0.377614 -2.2461,1.132813 -0.54037,0.748705 -0.81055,1.783861 -0.81054,3.105468 -1e-5,1.321619 0.27017,2.360029 0.81054,3.115235 0.54687,0.748699 1.29557,1.123048 2.2461,1.123047 0.95051,10e-7 1.69595,-0.374348 2.23633,-1.123047 0.54686,-0.755206 0.8203,-1.793616 0.82031,-3.115235 m -6.11328,-3.818359 c 0.3776,-0.651032 0.85286,-1.132802 1.42578,-1.445313 0.57942,-0.318999 1.26952,-0.478504 2.07031,-0.478515 1.32812,1.1e-5 2.40559,0.527354 3.23242,1.582031 0.83332,1.054696 1.24999,2.441414 1.25,4.160156 -10e-6,1.718754 -0.41668,3.105471 -1.25,4.160157 -0.82683,1.054687 -1.9043,1.582031 -3.23242,1.582031 -0.80079,0 -1.49089,-0.15625 -2.07031,-0.46875 -0.57292,-0.31901 -1.04818,-0.804036 -1.42578,-1.455078 l 0,1.640625 -1.80664,0 0,-15.195313 1.80664,0 0,5.917969"
         style=""
         id="path4286" />
      <path
         d="m 497.64963,37.392422 1.79687,0 0,11.132812 c 0,1.393228 -0.26693,2.402341 -0.80078,3.027344 -0.52734,0.624996 -1.38021,0.937496 -2.55859,0.9375 l -0.6836,0 0,-1.523438 0.47852,0 c 0.68359,-2e-6 1.14909,-0.159507 1.39648,-0.478515 0.2474,-0.312502 0.3711,-0.966798 0.3711,-1.962891 l 0,-11.132812 m 0,-4.257813 1.79687,0 0,2.275391 -1.79687,0 0,-2.275391"
         style=""
         id="path4288" />
      <path
         d="m 512.55197,42.411953 0,0.878906 -8.26172,0 c 0.0781,1.236983 0.44922,2.180993 1.11328,2.832031 0.67057,0.644533 1.60156,0.966799 2.79297,0.966797 0.6901,2e-6 1.35742,-0.08463 2.00196,-0.253906 0.65103,-0.169269 1.29556,-0.423175 1.93359,-0.761719 l 0,1.699219 c -0.64454,0.273438 -1.30535,0.481771 -1.98242,0.625 -0.67709,0.143229 -1.36394,0.214844 -2.06055,0.214844 -1.7448,0 -3.12826,-0.507812 -4.15039,-1.523438 -1.01563,-1.015622 -1.52344,-2.389319 -1.52344,-4.121093 0,-1.790358 0.48177,-3.209627 1.44532,-4.257813 0.97004,-1.054677 2.27538,-1.58202 3.91601,-1.582031 1.47135,1.1e-5 2.63346,0.475271 3.48633,1.425781 0.85936,0.944019 1.28905,2.229825 1.28906,3.857422 m -1.79687,-0.527344 c -0.013,-0.983065 -0.28973,-1.76757 -0.83008,-2.353515 -0.53386,-0.585929 -1.2435,-0.878897 -2.12891,-0.878907 -1.00261,1e-5 -1.80664,0.283213 -2.41211,0.84961 -0.59896,0.566414 -0.94401,1.363939 -1.03515,2.392578 l 6.40625,-0.0098"
         style=""
         id="path4290" />
      <path
         d="m 523.37228,37.812344 0,1.679687 c -0.50782,-0.279939 -1.01889,-0.488272 -1.5332,-0.625 -0.50782,-0.143219 -1.02214,-0.214834 -1.54297,-0.214844 -1.16537,1e-5 -2.07032,0.371103 -2.71484,1.113282 -0.64454,0.735685 -0.9668,1.77084 -0.9668,3.105468 0,1.33464 0.32226,2.37305 0.9668,3.115235 0.64452,0.735678 1.54947,1.103517 2.71484,1.103515 0.52083,2e-6 1.03515,-0.06836 1.54297,-0.205078 0.51431,-0.143227 1.02538,-0.354816 1.5332,-0.634765 l 0,1.660156 c -0.50131,0.234375 -1.02214,0.410156 -1.5625,0.527344 -0.53386,0.117187 -1.10352,0.175781 -1.70898,0.175781 -1.64714,0 -2.95573,-0.517578 -3.92578,-1.552735 -0.97006,-1.035153 -1.45508,-2.431636 -1.45508,-4.189453 0,-1.783847 0.48828,-3.18684 1.46484,-4.208984 0.98307,-1.022125 2.32747,-1.533192 4.03321,-1.533203 0.55338,1.1e-5 1.09374,0.05861 1.62109,0.175781 0.52734,0.110688 1.0384,0.279959 1.5332,0.507813"
         style=""
         id="path4292" />
      <path
         d="m 528.29416,34.286953 0,3.105469 3.70117,0 0,1.396484 -3.70117,0 0,5.9375 c 0,0.89193 0.12044,1.464846 0.36133,1.71875 0.24739,0.253908 0.74544,0.380861 1.49414,0.380859 l 1.8457,0 0,1.503907 -1.8457,0 c -1.38673,0 -2.34376,-0.257161 -2.8711,-0.771485 -0.52734,-0.520832 -0.79101,-1.464841 -0.79101,-2.832031 l 0,-5.9375 -1.31836,0 0,-1.396484 1.31836,0 0,-3.105469 1.80664,0"
         style=""
         id="path4294" />
    </g>
    <path
       style="fill:none;stroke:#000000;stroke-width:1px;stroke-linecap:butt;stroke-linejoin:miter;stroke-opacity:1;marker-end:url(#Arrow1Lend)"
       d="m 331.45161,44.297666 62.09678,0"
       id="path3781"
       inkscape:connector-curvature="0" />
  </g>
</svg>
