<?xml version="1.0" encoding="UTF-8" standalone="no"?>
<!-- Created with Inkscape (http://www.inkscape.org/) -->

<svg
   xmlns:dc="http://purl.org/dc/elements/1.1/"
   xmlns:cc="http://creativecommons.org/ns#"
   xmlns:rdf="http://www.w3.org/1999/02/22-rdf-syntax-ns#"
   xmlns:svg="http://www.w3.org/2000/svg"
   xmlns="http://www.w3.org/2000/svg"
   xmlns:sodipodi="http://sodipodi.sourceforge.net/DTD/sodipodi-0.dtd"
   xmlns:inkscape="http://www.inkscape.org/namespaces/inkscape"
   width="638.36572"
   height="58.917255"
   id="svg2"
   version="1.1"
   inkscape:version="0.48.5 r10040"
   sodipodi:docname="InfixConvertor.svg">
  <defs
     id="defs4">
    <marker
       inkscape:stockid="Arrow1Lend"
       orient="auto"
       refY="0"
       refX="0"
       id="Arrow1Lend"
       style="overflow:visible">
      <path
         id="path3794"
         d="M 0,0 5,-5 -12.5,0 5,5 0,0 z"
         style="fill-rule:evenodd;stroke:#000000;stroke-width:1pt"
         transform="matrix(-0.8,0,0,-0.8,-10,0)"
         inkscape:connector-curvature="0" />
    </marker>
    <inkscape:path-effect
       effect="skeletal"
       id="path-effect3783"
       is_visible="true"
       pattern="M 0,5 10,10 10,0 z"
       copytype="single_stretched"
       prop_scale="1"
       scale_y_rel="false"
       spacing="0"
       normal_offset="0"
       tang_offset="0"
       prop_units="false"
       vertical_pattern="false"
       fuse_tolerance="0" />
    <inkscape:path-effect
       effect="skeletal"
       id="path-effect3779"
       is_visible="true"
       pattern="M 0,5 10,10 10,0 z"
       copytype="single_stretched"
       prop_scale="1"
       scale_y_rel="false"
       spacing="0"
       normal_offset="0"
       tang_offset="0"
       prop_units="false"
       vertical_pattern="false"
       fuse_tolerance="0" />
    <inkscape:path-effect
       effect="skeletal"
       id="path-effect3775"
       is_visible="true"
       pattern="M 0,5 10,10 10,0 z"
       copytype="single_stretched"
       prop_scale="1"
       scale_y_rel="false"
       spacing="0"
       normal_offset="0"
       tang_offset="0"
       prop_units="false"
       vertical_pattern="false"
       fuse_tolerance="0" />
    <marker
       inkscape:stockid="Arrow1Lend"
       orient="auto"
       refY="0"
       refX="0"
       id="Arrow1Lend-5"
       style="overflow:visible">
      <path
         inkscape:connector-curvature="0"
         id="path3794-0"
         d="M 0,0 5,-5 -12.5,0 5,5 0,0 z"
         style="fill-rule:evenodd;stroke:#000000;stroke-width:1pt"
         transform="matrix(-0.8,0,0,-0.8,-10,0)" />
    </marker>
  </defs>
  <sodipodi:namedview
     id="base"
     pagecolor="#ffffff"
     bordercolor="#666666"
     borderopacity="1.0"
     inkscape:pageopacity="0.0"
     inkscape:pageshadow="2"
     inkscape:zoom="1.01"
     inkscape:cx="141.04168"
     inkscape:cy="-28.287435"
     inkscape:document-units="px"
     inkscape:current-layer="layer1"
     showgrid="false"
     inkscape:window-width="1366"
     inkscape:window-height="702"
     inkscape:window-x="0"
     inkscape:window-y="27"
     inkscape:window-maximized="1"
     fit-margin-top="0"
     fit-margin-left="0"
     fit-margin-right="0"
     fit-margin-bottom="1.3" />
  <metadata
     id="metadata7">
    <rdf:RDF>
      <cc:Work
         rdf:about="">
        <dc:format>image/svg+xml</dc:format>
        <dc:type
           rdf:resource="http://purl.org/dc/dcmitype/StillImage" />
        <dc:title />
      </cc:Work>
    </rdf:RDF>
  </metadata>
  <g
     inkscape:label="Layer 1"
     inkscape:groupmode="layer"
     id="layer1"
     transform="translate(-38.604599,-94.436106)">
    <path
       style="fill:#ffffff;fill-opacity:1;fill-rule:evenodd;stroke:#000000;stroke-width:0.51214146999999999px;stroke-linecap:butt;stroke-linejoin:miter;stroke-opacity:1"
       d="m 384.17889,94.692177 157.33242,0 0,58.405113 -157.33242,0 z"
       id="rect2985" />
    <flowRoot
       xml:space="preserve"
       id="flowRoot3757"
       style="font-size:40px;font-style:normal;font-weight:normal;line-height:125%;letter-spacing:0px;word-spacing:0px;fill:#000000;fill-opacity:1;stroke:none;font-family:Sans"><flowRegion
         id="flowRegion3759"><rect
           id="rect3761"
           width="137.62376"
           height="49.504951"
           x="32.673267"
           y="87.015648" /></flowRegion><flowPara
         id="flowPara3763">List&lt;elements&gt;</flowPara></flowRoot>    <g
       transform="translate(-7.9207921,35.643564)"
       style="font-size:40px;font-style:normal;font-weight:normal;line-height:122.00000286%;letter-spacing:0px;word-spacing:0px;fill:#000000;fill-opacity:1;stroke:none;font-family:Sans"
       id="flowRoot3765">
      <path
         d="m 46.525391,81.479905 1.972656,0 0,12.919922 7.099609,0 0,1.660156 -9.072265,0 0,-14.580078"
         style="font-size:20px"
         id="path4310"
         inkscape:connector-curvature="0" />
      <path
         d="m 57.580078,85.122483 1.796875,0 0,10.9375 -1.796875,0 0,-10.9375 m 0,-4.257812 1.796875,0 0,2.27539 -1.796875,0 0,-2.27539"
         style="font-size:20px"
         id="path4312"
         inkscape:connector-curvature="0" />
      <path
         d="m 70.099609,85.444749 0,1.699219 c -0.50782,-0.260408 -1.035164,-0.45572 -1.582031,-0.585938 -0.546882,-0.130199 -1.113287,-0.195303 -1.699219,-0.195312 -0.891931,9e-6 -1.562504,0.136728 -2.011718,0.410156 -0.442712,0.273446 -0.664066,0.683602 -0.664063,1.230469 -3e-6,0.416674 0.159502,0.74545 0.478516,0.986328 0.319006,0.234382 0.960282,0.458991 1.923828,0.673828 l 0.615234,0.136719 c 1.276035,0.273443 2.180982,0.660812 2.714844,1.162109 0.540355,0.494796 0.810537,1.188155 0.810547,2.080078 -1e-5,1.015627 -0.403655,1.819663 -1.210938,2.412109 -0.800788,0.592448 -1.904303,0.888672 -3.310547,0.888672 -0.585941,0 -1.19792,-0.05859 -1.835937,-0.175781 -0.631513,-0.110677 -1.29883,-0.279948 -2.001953,-0.507812 l 0,-1.855469 c 0.664061,0.345054 1.318357,0.60547 1.96289,0.78125 0.644528,0.169272 1.282548,0.253907 1.914063,0.253906 0.846348,10e-7 1.497389,-0.143228 1.953125,-0.429687 0.455722,-0.292967 0.683586,-0.703123 0.683594,-1.230469 -8e-6,-0.488278 -0.166023,-0.862627 -0.498047,-1.123047 -0.325528,-0.260412 -1.044928,-0.511063 -2.158203,-0.751953 l -0.625,-0.146485 c -1.113285,-0.234369 -1.91732,-0.592442 -2.41211,-1.074218 -0.494793,-0.488275 -0.742188,-1.155592 -0.742187,-2.001953 -10e-7,-1.028637 0.364582,-1.822907 1.09375,-2.382813 0.729164,-0.559885 1.764319,-0.839832 3.105469,-0.839844 0.664056,1.2e-5 1.289055,0.04884 1.875,0.146485 0.585929,0.09767 1.126293,0.244151 1.621093,0.439453"
         style="font-size:20px"
         id="path4314"
         inkscape:connector-curvature="0" />
      <path
         d="m 75.333984,82.017014 0,3.105469 3.701172,0 0,1.396485 -3.701172,0 0,5.9375 c -3e-6,0.891929 0.120439,1.464845 0.361328,1.71875 0.247392,0.253907 0.745438,0.38086 1.494141,0.380859 l 1.845703,0 0,1.503906 -1.845703,0 c -1.386723,0 -2.343753,-0.257161 -2.871094,-0.771484 -0.527345,-0.520832 -0.791017,-1.464842 -0.791015,-2.832031 l 0,-5.9375 -1.31836,0 0,-1.396485 1.31836,0 0,-3.105469 1.80664,0"
         style="font-size:20px"
         id="path4316"
         inkscape:connector-curvature="0" />
      <path
         d="m 94.162109,86.216233 -10.078125,3.583985 10.078125,3.564453 0,1.777343 -12.519531,-4.541015 0,-1.621094 12.519531,-4.541016 0,1.777344"
         style="font-size:20px"
         id="path4318"
         inkscape:connector-curvature="0" />
      <path
         d="m 98.244141,81.479905 1.972659,0 0,14.580078 -1.972659,0 0,-14.580078"
         style="font-size:20px"
         id="path4320"
         inkscape:connector-curvature="0" />
      <path
         d="m 104.14258,81.479905 9.21875,0 0,1.660156 -7.2461,0 0,4.316407 6.94336,0 0,1.660156 -6.94336,0 0,5.283203 7.42188,0 0,1.660156 -9.39453,0 0,-14.580078"
         style="font-size:20px"
         id="path4322"
         inkscape:connector-curvature="0" />
      <path
         d="m 116.7207,80.864671 1.79688,0 0,15.195312 -1.79688,0 0,-15.195312"
         style="font-size:20px"
         id="path4324"
         inkscape:connector-curvature="0" />
      <path
         d="m 131.62305,90.142014 0,0.878907 -8.26172,0 c 0.0781,1.236983 0.44921,2.180992 1.11328,2.832031 0.67057,0.644533 1.60156,0.966798 2.79297,0.966797 0.69009,10e-7 1.35741,-0.08463 2.00195,-0.253906 0.65103,-0.16927 1.29556,-0.423176 1.93359,-0.761719 l 0,1.699219 c -0.64454,0.273437 -1.30534,0.481771 -1.98242,0.625 -0.67709,0.143229 -1.36394,0.214843 -2.06054,0.214843 -1.7448,0 -3.12826,-0.507812 -4.15039,-1.523437 -1.01563,-1.015623 -1.52344,-2.389319 -1.52344,-4.121094 0,-1.790357 0.48177,-3.209627 1.44531,-4.257812 0.97005,-1.054677 2.27539,-1.58202 3.91602,-1.582032 1.47134,1.2e-5 2.63345,0.475271 3.48632,1.425782 0.85937,0.944019 1.28906,2.229825 1.28907,3.857421 m -1.79688,-0.527343 c -0.013,-0.983066 -0.28972,-1.76757 -0.83008,-2.353516 -0.53386,-0.585928 -1.24349,-0.878896 -2.1289,-0.878906 -1.00261,1e-5 -1.80665,0.283212 -2.41211,0.849609 -0.59896,0.566415 -0.94402,1.36394 -1.03516,2.392578 l 6.40625,-0.0098"
         style="font-size:20px"
         id="path4326"
         inkscape:connector-curvature="0" />
      <path
         d="m 143.08789,87.222093 c 0.44921,-0.807282 0.98632,-1.402985 1.61133,-1.78711 0.62499,-0.384103 1.36066,-0.57616 2.20703,-0.576172 1.13931,1.2e-5 2.01821,0.400402 2.63672,1.201172 0.61847,0.79428 0.92772,1.927092 0.92773,3.398438 l 0,6.601562 -1.80664,0 0,-6.542969 c -1e-5,-1.048169 -0.18556,-1.826163 -0.55664,-2.333984 -0.37111,-0.507803 -0.93751,-0.761709 -1.69922,-0.761719 -0.931,1e-5 -1.66668,0.309254 -2.20703,0.927735 -0.54037,0.618497 -0.81056,1.461596 -0.81055,2.529297 l 0,6.18164 -1.80664,0 0,-6.542969 c 0,-1.054679 -0.18555,-1.832673 -0.55664,-2.333984 -0.3711,-0.507803 -0.94401,-0.761709 -1.71875,-0.761719 -0.91797,1e-5 -1.64714,0.31251 -2.1875,0.9375 -0.54036,0.618498 -0.81055,1.458341 -0.81054,2.519532 l 0,6.18164 -1.80664,0 0,-10.9375 1.80664,0 0,1.699219 c 0.41015,-0.670563 0.90169,-1.165354 1.47461,-1.484375 0.57291,-0.318999 1.25325,-0.478504 2.04101,-0.478516 0.79426,1.2e-5 1.46809,0.201834 2.02149,0.605469 0.55988,0.403656 0.97329,0.989593 1.24023,1.757813"
         style="font-size:20px"
         id="path4328"
         inkscape:connector-curvature="0" />
      <path
         d="m 163.41992,90.142014 0,0.878907 -8.26172,0 c 0.0781,1.236983 0.44922,2.180992 1.11328,2.832031 0.67057,0.644533 1.60156,0.966798 2.79297,0.966797 0.6901,10e-7 1.35742,-0.08463 2.00196,-0.253906 0.65103,-0.16927 1.29556,-0.423176 1.93359,-0.761719 l 0,1.699219 c -0.64454,0.273437 -1.30535,0.481771 -1.98242,0.625 -0.67709,0.143229 -1.36394,0.214843 -2.06055,0.214843 -1.7448,0 -3.12826,-0.507812 -4.15039,-1.523437 -1.01563,-1.015623 -1.52344,-2.389319 -1.52344,-4.121094 0,-1.790357 0.48177,-3.209627 1.44532,-4.257812 0.97004,-1.054677 2.27538,-1.58202 3.91601,-1.582032 1.47135,1.2e-5 2.63346,0.475271 3.48633,1.425782 0.85936,0.944019 1.28905,2.229825 1.28906,3.857421 m -1.79687,-0.527343 c -0.013,-0.983066 -0.28973,-1.76757 -0.83008,-2.353516 -0.53386,-0.585928 -1.2435,-0.878896 -2.12891,-0.878906 -1.00261,1e-5 -1.80664,0.283212 -2.41211,0.849609 -0.59896,0.566415 -0.94401,1.36394 -1.03515,2.392578 l 6.40625,-0.0098"
         style="font-size:20px"
         id="path4330"
         inkscape:connector-curvature="0" />
      <path
         d="m 175.46094,89.458421 0,6.601562 -1.79688,0 0,-6.542969 c -1e-5,-1.035148 -0.20183,-1.809887 -0.60547,-2.324218 -0.40365,-0.514314 -1.00912,-0.771475 -1.8164,-0.771485 -0.97006,1e-5 -1.73503,0.309254 -2.29492,0.927735 -0.5599,0.618497 -0.83985,1.461596 -0.83985,2.529297 l 0,6.18164 -1.80664,0 0,-10.9375 1.80664,0 0,1.699219 c 0.42969,-0.657542 0.93424,-1.149078 1.51367,-1.474609 0.58594,-0.32551 1.25976,-0.48827 2.02149,-0.488282 1.2565,1.2e-5 2.20702,0.390636 2.85156,1.171875 0.64452,0.774749 0.96679,1.917326 0.9668,3.427735"
         style="font-size:20px"
         id="path4332"
         inkscape:connector-curvature="0" />
      <path
         d="m 180.8418,82.017014 0,3.105469 3.70117,0 0,1.396485 -3.70117,0 0,5.9375 c -1e-5,0.891929 0.12044,1.464845 0.36132,1.71875 0.2474,0.253907 0.74544,0.38086 1.49415,0.380859 l 1.8457,0 0,1.503906 -1.8457,0 c -1.38673,0 -2.34376,-0.257161 -2.8711,-0.771484 -0.52734,-0.520832 -0.79102,-1.464842 -0.79101,-2.832031 l 0,-5.9375 -1.31836,0 0,-1.396485 1.31836,0 0,-3.105469 1.80664,0"
         style="font-size:20px"
         id="path4334"
         inkscape:connector-curvature="0" />
      <path
         d="m 193.9082,89.224046 c 0.42317,0.143236 0.83333,0.449225 1.23047,0.917968 0.40364,0.468756 0.80728,1.113287 1.21094,1.933594 l 2.00195,3.984375 -2.11914,0 -1.86523,-3.740234 c -0.48178,-0.976558 -0.95053,-1.624344 -1.40625,-1.94336 -0.44923,-0.319004 -1.06446,-0.478509 -1.84571,-0.478515 l -2.14843,0 0,6.162109 -1.97266,0 0,-14.580078 4.45313,0 c 1.66665,1.5e-5 2.91014,0.348322 3.73046,1.044922 0.82031,0.696627 1.23046,1.748059 1.23047,3.154297 -1e-5,0.917978 -0.21485,1.679696 -0.64453,2.285156 -0.42319,0.605476 -1.04167,1.025398 -1.85547,1.259766 m -4.9414,-6.123047 0,5.175781 2.48047,0 c 0.95051,8e-6 1.66665,-0.218091 2.14843,-0.654297 0.48828,-0.442699 0.73242,-1.090485 0.73242,-1.943359 0,-0.852854 -0.24414,-1.494129 -0.73242,-1.923828 -0.48178,-0.436185 -1.19792,-0.654284 -2.14843,-0.654297 l -2.48047,0"
         style="font-size:20px"
         id="path4336"
         inkscape:connector-curvature="0" />
      <path
         d="m 209.2793,90.142014 0,0.878907 -8.26172,0 c 0.0781,1.236983 0.44921,2.180992 1.11328,2.832031 0.67057,0.644533 1.60156,0.966798 2.79297,0.966797 0.69009,10e-7 1.35741,-0.08463 2.00195,-0.253906 0.65103,-0.16927 1.29556,-0.423176 1.93359,-0.761719 l 0,1.699219 c -0.64454,0.273437 -1.30534,0.481771 -1.98242,0.625 -0.67709,0.143229 -1.36394,0.214843 -2.06054,0.214843 -1.7448,0 -3.12826,-0.507812 -4.15039,-1.523437 -1.01563,-1.015623 -1.52344,-2.389319 -1.52344,-4.121094 0,-1.790357 0.48177,-3.209627 1.44531,-4.257812 0.97005,-1.054677 2.27539,-1.58202 3.91602,-1.582032 1.47134,1.2e-5 2.63345,0.475271 3.48632,1.425782 0.85937,0.944019 1.28906,2.229825 1.28907,3.857421 m -1.79688,-0.527343 c -0.013,-0.983066 -0.28972,-1.76757 -0.83008,-2.353516 -0.53386,-0.585928 -1.24349,-0.878896 -2.1289,-0.878906 -1.00261,1e-5 -1.80665,0.283212 -2.41211,0.849609 -0.59896,0.566415 -0.94402,1.36394 -1.03516,2.392578 l 6.40625,-0.0098"
         style="font-size:20px"
         id="path4338"
         inkscape:connector-curvature="0" />
      <path
         d="m 213.9668,94.419358 0,5.800782 -1.80664,0 0,-15.097657 1.80664,0 0,1.660156 c 0.3776,-0.651031 0.85286,-1.132802 1.42578,-1.445312 0.57942,-0.318999 1.26952,-0.478504 2.07031,-0.478516 1.32812,1.2e-5 2.40559,0.527355 3.23242,1.582032 0.83332,1.054696 1.24999,2.441413 1.25,4.160156 -1e-5,1.718754 -0.41668,3.105471 -1.25,4.160156 -0.82683,1.054688 -1.9043,1.582031 -3.23242,1.582031 -0.80079,0 -1.49089,-0.15625 -2.07031,-0.46875 -0.57292,-0.31901 -1.04818,-0.804035 -1.42578,-1.455078 m 6.11328,-3.818359 c -1e-5,-1.321608 -0.27345,-2.356763 -0.82031,-3.105469 -0.54038,-0.755199 -1.28582,-1.132803 -2.23633,-1.132812 -0.95053,9e-6 -1.69923,0.377613 -2.2461,1.132812 -0.54036,0.748706 -0.81055,1.783861 -0.81054,3.105469 -1e-5,1.321619 0.27018,2.360029 0.81054,3.115234 0.54687,0.7487 1.29557,1.123048 2.2461,1.123047 0.95051,10e-7 1.69595,-0.374347 2.23633,-1.123047 0.54686,-0.755205 0.8203,-1.793615 0.82031,-3.115234"
         style="font-size:20px"
         id="path4340"
         inkscape:connector-curvature="0" />
      <path
         d="m 231.26172,86.802171 c -0.20183,-0.117178 -0.42319,-0.201814 -0.66406,-0.253907 -0.23439,-0.05858 -0.4948,-0.08788 -0.78125,-0.08789 -1.01563,9e-6 -1.79688,0.33204 -2.34375,0.996094 -0.54037,0.65756 -0.81055,1.604824 -0.81055,2.841796 l 0,5.761719 -1.80664,0 0,-10.9375 1.80664,0 0,1.699219 c 0.3776,-0.664053 0.86914,-1.155589 1.47461,-1.474609 0.60546,-0.32551 1.34114,-0.48827 2.20703,-0.488282 0.12369,1.2e-5 0.26041,0.0098 0.41016,0.0293 0.14973,0.01303 0.31574,0.03582 0.49804,0.06836 l 0.01,1.845703"
         style="font-size:20px"
         id="path4342"
         inkscape:connector-curvature="0" />
      <path
         d="m 242.0918,90.142014 0,0.878907 -8.26172,0 c 0.0781,1.236983 0.44921,2.180992 1.11328,2.832031 0.67057,0.644533 1.60156,0.966798 2.79297,0.966797 0.69009,10e-7 1.35741,-0.08463 2.00195,-0.253906 0.65103,-0.16927 1.29556,-0.423176 1.93359,-0.761719 l 0,1.699219 c -0.64454,0.273437 -1.30534,0.481771 -1.98242,0.625 -0.67709,0.143229 -1.36394,0.214843 -2.06054,0.214843 -1.7448,0 -3.12826,-0.507812 -4.15039,-1.523437 -1.01563,-1.015623 -1.52344,-2.389319 -1.52344,-4.121094 0,-1.790357 0.48177,-3.209627 1.44531,-4.257812 0.97005,-1.054677 2.27539,-1.58202 3.91602,-1.582032 1.47134,1.2e-5 2.63345,0.475271 3.48632,1.425782 0.85937,0.944019 1.28906,2.229825 1.28907,3.857421 m -1.79688,-0.527343 c -0.013,-0.983066 -0.28972,-1.76757 -0.83008,-2.353516 -0.53386,-0.585928 -1.24349,-0.878896 -2.1289,-0.878906 -1.00261,1e-5 -1.80665,0.283212 -2.41211,0.849609 -0.59896,0.566415 -0.94402,1.36394 -1.03516,2.392578 l 6.40625,-0.0098"
         style="font-size:20px"
         id="path4344"
         inkscape:connector-curvature="0" />
      <path
         d="m 252.01367,85.444749 0,1.699219 c -0.50782,-0.260408 -1.03516,-0.45572 -1.58203,-0.585938 -0.54688,-0.130199 -1.11329,-0.195303 -1.69922,-0.195312 -0.89193,9e-6 -1.5625,0.136728 -2.01172,0.410156 -0.44271,0.273446 -0.66406,0.683602 -0.66406,1.230469 0,0.416674 0.1595,0.74545 0.47852,0.986328 0.319,0.234382 0.96028,0.458991 1.92382,0.673828 l 0.61524,0.136719 c 1.27603,0.273443 2.18098,0.660812 2.71484,1.162109 0.54036,0.494796 0.81054,1.188155 0.81055,2.080078 -1e-5,1.015627 -0.40366,1.819663 -1.21094,2.412109 -0.80079,0.592448 -1.9043,0.888672 -3.31055,0.888672 -0.58594,0 -1.19792,-0.05859 -1.83593,-0.175781 -0.63152,-0.110677 -1.29883,-0.279948 -2.00196,-0.507812 l 0,-1.855469 c 0.66407,0.345054 1.31836,0.60547 1.96289,0.78125 0.64453,0.169272 1.28255,0.253907 1.91407,0.253906 0.84635,10e-7 1.49739,-0.143228 1.95312,-0.429687 0.45572,-0.292967 0.68359,-0.703123 0.6836,-1.230469 -1e-5,-0.488278 -0.16603,-0.862627 -0.49805,-1.123047 -0.32553,-0.260412 -1.04493,-0.511063 -2.1582,-0.751953 l -0.625,-0.146485 c -1.11329,-0.234369 -1.91732,-0.592442 -2.41211,-1.074218 -0.4948,-0.488275 -0.74219,-1.155592 -0.74219,-2.001953 0,-1.028637 0.36458,-1.822907 1.09375,-2.382813 0.72916,-0.559885 1.76432,-0.839832 3.10547,-0.839844 0.66405,1.2e-5 1.28905,0.04884 1.875,0.146485 0.58593,0.09767 1.12629,0.244151 1.62109,0.439453"
         style="font-size:20px"
         id="path4346"
         inkscape:connector-curvature="0" />
      <path
         d="m 264.82617,90.142014 0,0.878907 -8.26172,0 c 0.0781,1.236983 0.44922,2.180992 1.11328,2.832031 0.67057,0.644533 1.60156,0.966798 2.79297,0.966797 0.6901,10e-7 1.35742,-0.08463 2.00196,-0.253906 0.65103,-0.16927 1.29556,-0.423176 1.93359,-0.761719 l 0,1.699219 c -0.64454,0.273437 -1.30535,0.481771 -1.98242,0.625 -0.67709,0.143229 -1.36394,0.214843 -2.06055,0.214843 -1.7448,0 -3.12826,-0.507812 -4.15039,-1.523437 -1.01563,-1.015623 -1.52344,-2.389319 -1.52344,-4.121094 0,-1.790357 0.48177,-3.209627 1.44532,-4.257812 0.97004,-1.054677 2.27538,-1.58202 3.91601,-1.582032 1.47135,1.2e-5 2.63346,0.475271 3.48633,1.425782 0.85936,0.944019 1.28905,2.229825 1.28906,3.857421 m -1.79687,-0.527343 c -0.013,-0.983066 -0.28973,-1.76757 -0.83008,-2.353516 -0.53386,-0.585928 -1.2435,-0.878896 -2.12891,-0.878906 -1.00261,1e-5 -1.80664,0.283212 -2.41211,0.849609 -0.59896,0.566415 -0.94401,1.36394 -1.03515,2.392578 l 6.40625,-0.0098"
         style="font-size:20px"
         id="path4348"
         inkscape:connector-curvature="0" />
      <path
         d="m 276.86719,89.458421 0,6.601562 -1.79688,0 0,-6.542969 c -1e-5,-1.035148 -0.20183,-1.809887 -0.60547,-2.324218 -0.40365,-0.514314 -1.00912,-0.771475 -1.8164,-0.771485 -0.97006,1e-5 -1.73503,0.309254 -2.29492,0.927735 -0.5599,0.618497 -0.83985,1.461596 -0.83985,2.529297 l 0,6.18164 -1.80664,0 0,-10.9375 1.80664,0 0,1.699219 c 0.42969,-0.657542 0.93424,-1.149078 1.51367,-1.474609 0.58594,-0.32551 1.25976,-0.48827 2.02149,-0.488282 1.2565,1.2e-5 2.20702,0.390636 2.85156,1.171875 0.64452,0.774749 0.96679,1.917326 0.9668,3.427735"
         style="font-size:20px"
         id="path4350"
         inkscape:connector-curvature="0" />
      <path
         d="m 282.24805,82.017014 0,3.105469 3.70117,0 0,1.396485 -3.70117,0 0,5.9375 c -10e-6,0.891929 0.12044,1.464845 0.36132,1.71875 0.2474,0.253907 0.74544,0.38086 1.49415,0.380859 l 1.8457,0 0,1.503906 -1.8457,0 c -1.38673,0 -2.34376,-0.257161 -2.8711,-0.771484 -0.52734,-0.520832 -0.79102,-1.464842 -0.79101,-2.832031 l 0,-5.9375 -1.31836,0 0,-1.396485 1.31836,0 0,-3.105469 1.80664,0"
         style="font-size:20px"
         id="path4352"
         inkscape:connector-curvature="0" />
      <path
         d="m 293.29297,90.561936 c -1.45183,6e-6 -2.45769,0.166021 -3.01758,0.498047 -0.5599,0.332036 -0.83985,0.898442 -0.83984,1.699219 -10e-6,0.638023 0.20833,1.145835 0.625,1.523437 0.42317,0.371096 0.99609,0.556642 1.71875,0.556641 0.99608,10e-7 1.79361,-0.351561 2.39257,-1.054687 0.60547,-0.709633 0.9082,-1.650387 0.90821,-2.822266 l 0,-0.400391 -1.78711,0 m 3.58398,-0.742187 0,6.240234 -1.79687,0 0,-1.660156 c -0.41017,0.664063 -0.92123,1.155599 -1.53321,1.474609 -0.61198,0.3125 -1.36068,0.46875 -2.24609,0.46875 -1.11979,0 -2.01172,-0.3125 -2.67578,-0.9375 -0.65755,-0.631509 -0.98633,-1.474607 -0.98633,-2.529297 0,-1.230464 0.41016,-2.158197 1.23047,-2.783203 0.82682,-0.624993 2.05729,-0.937493 3.69141,-0.9375 l 2.51953,0 0,-0.175781 c -1e-5,-0.826815 -0.27345,-1.464835 -0.82031,-1.914062 -0.54038,-0.45572 -1.30209,-0.683584 -2.28516,-0.683594 -0.62501,1e-5 -1.23373,0.07488 -1.82617,0.224609 -0.59245,0.149749 -1.16211,0.374358 -1.70899,0.673828 l 0,-1.660156 c 0.65755,-0.253895 1.29557,-0.442697 1.91407,-0.566406 0.61848,-0.130197 1.22069,-0.195301 1.80664,-0.195313 1.58202,1.2e-5 2.76366,0.410167 3.54492,1.230469 0.78124,0.820322 1.17186,2.06381 1.17187,3.730469"
         style="font-size:20px"
         id="path4354"
         inkscape:connector-curvature="0" />
      <path
         d="m 302.36523,82.017014 0,3.105469 3.70118,0 0,1.396485 -3.70118,0 0,5.9375 c 0,0.891929 0.12044,1.464845 0.36133,1.71875 0.24739,0.253907 0.74544,0.38086 1.49414,0.380859 l 1.84571,0 0,1.503906 -1.84571,0 c -1.38672,0 -2.34375,-0.257161 -2.87109,-0.771484 -0.52735,-0.520832 -0.79102,-1.464842 -0.79102,-2.832031 l 0,-5.9375 -1.31836,0 0,-1.396485 1.31836,0 0,-3.105469 1.80664,0"
         style="font-size:20px"
         id="path4356"
         inkscape:connector-curvature="0" />
      <path
         d="m 308.43945,85.122483 1.79688,0 0,10.9375 -1.79688,0 0,-10.9375 m 0,-4.257812 1.79688,0 0,2.27539 -1.79688,0 0,-2.27539"
         style="font-size:20px"
         id="path4358"
         inkscape:connector-curvature="0" />
      <path
         d="m 318.22461,86.382249 c -0.96355,1e-5 -1.72527,0.377613 -2.28516,1.132812 -0.5599,0.748706 -0.83984,1.777351 -0.83984,3.085938 0,1.308598 0.27669,2.340498 0.83008,3.095703 0.55989,0.7487 1.32486,1.123048 2.29492,1.123047 0.95702,10e-7 1.71549,-0.377603 2.27539,-1.132813 0.55989,-0.755205 0.83983,-1.78385 0.83984,-3.085937 -10e-6,-1.295566 -0.27995,-2.320956 -0.83984,-3.076172 -0.5599,-0.761709 -1.31837,-1.142568 -2.27539,-1.142578 m 0,-1.523438 c 1.56249,1.2e-5 2.7897,0.507824 3.68164,1.523438 0.89192,1.015634 1.33788,2.421882 1.33789,4.21875 -1e-5,1.790368 -0.44597,3.196617 -1.33789,4.21875 -0.89194,1.015625 -2.11915,1.523437 -3.68164,1.523437 -1.56902,0 -2.79948,-0.507812 -3.69141,-1.523437 -0.88542,-1.022133 -1.32812,-2.428382 -1.32812,-4.21875 0,-1.796868 0.4427,-3.203116 1.32812,-4.21875 0.89193,-1.015614 2.12239,-1.523426 3.69141,-1.523438"
         style="font-size:20px"
         id="path4360"
         inkscape:connector-curvature="0" />
      <path
         d="m 335.30469,89.458421 0,6.601562 -1.79688,0 0,-6.542969 c -1e-5,-1.035148 -0.20183,-1.809887 -0.60547,-2.324218 -0.40365,-0.514314 -1.00912,-0.771475 -1.8164,-0.771485 -0.97006,1e-5 -1.73503,0.309254 -2.29492,0.927735 -0.5599,0.618497 -0.83985,1.461596 -0.83985,2.529297 l 0,6.18164 -1.80664,0 0,-10.9375 1.80664,0 0,1.699219 c 0.42969,-0.657542 0.93424,-1.149078 1.51367,-1.474609 0.58594,-0.32551 1.25976,-0.48827 2.02149,-0.488282 1.2565,1.2e-5 2.20702,0.390636 2.85156,1.171875 0.64452,0.774749 0.96679,1.917326 0.9668,3.427735"
         style="font-size:20px"
         id="path4362"
         inkscape:connector-curvature="0" />
      <path
         d="m 339.14258,86.216233 0,-1.777344 12.51953,4.541016 0,1.621094 -12.51953,4.541015 0,-1.777343 10.05859,-3.564453 -10.05859,-3.583985"
         style="font-size:20px"
         id="path4364"
         inkscape:connector-curvature="0" />
    </g>
    <path
       style="fill:none;stroke:#000000;stroke-width:1px;stroke-linecap:butt;stroke-linejoin:miter;stroke-opacity:1;marker-end:url(#Arrow1Lend)"
       d="m 348.51485,124.63941 34.65347,0"
       id="path3785"
       inkscape:connector-curvature="0" />
    <g
       transform="translate(2.9702967,11.881188)"
       style="font-size:20px;font-style:normal;font-weight:normal;line-height:125%;letter-spacing:0px;word-spacing:0px;fill:#000000;fill-opacity:1;stroke:none;font-family:Sans"
       id="flowRoot4239">
      <path
         d="m 583.15039,104.26116 1.97266,0 0,14.58007 -1.97266,0 0,-14.58007"
         id="path4380"
         inkscape:connector-curvature="0" />
      <path
         d="m 589.04883,104.26116 9.21875,0 0,1.66015 -7.2461,0 0,4.31641 6.94336,0 0,1.66015 -6.94336,0 0,5.28321 7.42188,0 0,1.66015 -9.39453,0 0,-14.58007"
         id="path4382"
         inkscape:connector-curvature="0" />
      <path
         d="m 602.70117,113.38225 c 0,1.32162 0.27018,2.36003 0.81055,3.11523 0.54687,0.7487 1.29557,1.12305 2.24609,1.12305 0.95052,0 1.69921,-0.37435 2.2461,-1.12305 0.54686,-0.7552 0.8203,-1.79361 0.82031,-3.11523 -10e-6,-1.32161 -0.27345,-2.35676 -0.82031,-3.10547 -0.54689,-0.7552 -1.29558,-1.1328 -2.2461,-1.13281 -0.95052,1e-5 -1.69922,0.37761 -2.24609,1.13281 -0.54037,0.74871 -0.81055,1.78386 -0.81055,3.10547 m 6.12305,3.81836 c -0.37761,0.65104 -0.85613,1.13607 -1.43555,1.45508 -0.57292,0.3125 -1.26303,0.46875 -2.07031,0.46875 -1.32162,0 -2.39909,-0.52735 -3.23242,-1.58203 -0.82683,-1.05469 -1.24024,-2.44141 -1.24024,-4.16016 0,-1.71874 0.41341,-3.10546 1.24024,-4.16016 0.83333,-1.05467 1.9108,-1.58202 3.23242,-1.58203 0.80728,10e-6 1.49739,0.15952 2.07031,0.47852 0.57942,0.31251 1.05794,0.79428 1.43555,1.44531 l 0,-1.66016 1.79687,0 0,15.09766 -1.79687,0 0,-5.80078"
         id="path4384"
         inkscape:connector-curvature="0" />
      <path
         d="m 614.13672,114.52483 0,-6.6211 1.79687,0 0,6.55274 c 0,1.03516 0.20182,1.81315 0.60547,2.33398 0.40364,0.51433 1.00911,0.77149 1.81641,0.77149 0.97004,0 1.73502,-0.30925 2.29492,-0.92774 0.5664,-0.61848 0.8496,-1.46158 0.84961,-2.52929 l 0,-6.20118 1.79687,0 0,10.9375 -1.79687,0 0,-1.67968 c -0.43621,0.66406 -0.94402,1.15885 -1.52344,1.48437 -0.57292,0.31901 -1.24024,0.47852 -2.00195,0.47852 -1.25652,0 -2.21029,-0.39063 -2.86133,-1.17188 -0.65104,-0.78125 -0.97656,-1.92382 -0.97656,-3.42773 m 4.52148,-6.88477 0,0"
         id="path4386"
         inkscape:connector-curvature="0" />
      <path
         d="m 631.98828,113.34319 c -1.45183,0 -2.45769,0.16602 -3.01758,0.49804 -0.5599,0.33204 -0.83984,0.89844 -0.83984,1.69922 0,0.63803 0.20833,1.14584 0.625,1.52344 0.42317,0.37109 0.99609,0.55664 1.71875,0.55664 0.99609,0 1.79361,-0.35156 2.39258,-1.05469 0.60546,-0.70963 0.90819,-1.65038 0.9082,-2.82226 l 0,-0.40039 -1.78711,0 m 3.58399,-0.74219 0,6.24023 -1.79688,0 0,-1.66015 c -0.41016,0.66406 -0.92123,1.1556 -1.5332,1.47461 -0.61199,0.3125 -1.36069,0.46875 -2.2461,0.46875 -1.11979,0 -2.01172,-0.3125 -2.67578,-0.9375 -0.65755,-0.63151 -0.98633,-1.47461 -0.98633,-2.5293 0,-1.23046 0.41016,-2.1582 1.23047,-2.7832 0.82682,-0.625 2.05729,-0.9375 3.69141,-0.9375 l 2.51953,0 0,-0.17578 c -10e-6,-0.82682 -0.27345,-1.46484 -0.82031,-1.91407 -0.54037,-0.45572 -1.30209,-0.68358 -2.28516,-0.68359 -0.625,1e-5 -1.23373,0.0749 -1.82617,0.22461 -0.59245,0.14975 -1.16211,0.37436 -1.70898,0.67383 l 0,-1.66016 c 0.65755,-0.2539 1.29557,-0.4427 1.91406,-0.56641 0.61848,-0.13019 1.2207,-0.1953 1.80664,-0.19531 1.58202,10e-6 2.76366,0.41017 3.54492,1.23047 0.78124,0.82032 1.17187,2.06381 1.17188,3.73047"
         id="path4388"
         inkscape:connector-curvature="0" />
      <path
         d="m 641.06055,104.79826 0,3.10547 3.70117,0 0,1.39649 -3.70117,0 0,5.9375 c -1e-5,0.89193 0.12044,1.46484 0.36132,1.71875 0.2474,0.25391 0.74544,0.38086 1.49415,0.38086 l 1.8457,0 0,1.5039 -1.8457,0 c -1.38673,0 -2.34376,-0.25716 -2.8711,-0.77148 -0.52734,-0.52083 -0.79102,-1.46484 -0.79101,-2.83203 l 0,-5.9375 -1.31836,0 0,-1.39649 1.31836,0 0,-3.10547 1.80664,0"
         id="path4390"
         inkscape:connector-curvature="0" />
      <path
         d="m 647.13477,107.90373 1.79687,0 0,10.9375 -1.79687,0 0,-10.9375 m 0,-4.25781 1.79687,0 0,2.27539 -1.79687,0 0,-2.27539"
         id="path4392"
         inkscape:connector-curvature="0" />
      <path
         d="m 656.91992,109.1635 c -0.96354,1e-5 -1.72526,0.37761 -2.28515,1.13281 -0.5599,0.74871 -0.83985,1.77735 -0.83985,3.08594 0,1.3086 0.27669,2.3405 0.83008,3.0957 0.55989,0.7487 1.32486,1.12305 2.29492,1.12305 0.95703,0 1.71549,-0.3776 2.27539,-1.13281 0.55989,-0.75521 0.83984,-1.78385 0.83985,-3.08594 -10e-6,-1.29557 -0.27996,-2.32096 -0.83985,-3.07617 -0.5599,-0.76171 -1.31836,-1.14257 -2.27539,-1.14258 m 0,-1.52344 c 1.56249,10e-6 2.78971,0.50782 3.68164,1.52344 0.89192,1.01563 1.33788,2.42188 1.33789,4.21875 -10e-6,1.79037 -0.44597,3.19662 -1.33789,4.21875 -0.89193,1.01562 -2.11915,1.52344 -3.68164,1.52344 -1.56901,0 -2.79948,-0.50782 -3.6914,-1.52344 -0.88542,-1.02213 -1.32813,-2.42838 -1.32813,-4.21875 0,-1.79687 0.44271,-3.20312 1.32813,-4.21875 0.89192,-1.01562 2.12239,-1.52343 3.6914,-1.52344"
         id="path4394"
         inkscape:connector-curvature="0" />
      <path
         d="m 674,112.23967 0,6.60156 -1.79688,0 0,-6.54297 c 0,-1.03514 -0.20183,-1.80988 -0.60546,-2.32421 -0.40366,-0.51432 -1.00913,-0.77148 -1.81641,-0.77149 -0.97006,10e-6 -1.73503,0.30926 -2.29492,0.92774 -0.5599,0.61849 -0.83985,1.46159 -0.83985,2.52929 l 0,6.18164 -1.80664,0 0,-10.9375 1.80664,0 0,1.69922 c 0.42969,-0.65754 0.93424,-1.14908 1.51368,-1.47461 0.58593,-0.32551 1.25976,-0.48827 2.02148,-0.48828 1.2565,10e-6 2.20702,0.39064 2.85156,1.17188 0.64452,0.77475 0.96679,1.91732 0.9668,3.42773"
         id="path4396"
         inkscape:connector-curvature="0" />
    </g>
    <path
       style="fill:none;stroke:#000000;stroke-width:1px;stroke-linecap:butt;stroke-linejoin:miter;stroke-opacity:1;marker-end:url(#Arrow1Lend)"
       d="m 543.06931,125.62951 34.65347,0"
       id="path3785-6"
       inkscape:connector-curvature="0" />
    <flowRoot
       xml:space="preserve"
       id="flowRoot3050"
       style="fill:black;stroke:none;stroke-opacity:1;stroke-width:1px;stroke-linejoin:miter;stroke-linecap:butt;fill-opacity:1;font-family:Sans;font-style:normal;font-weight:normal;font-size:20px;line-height:125%;letter-spacing:0px;word-spacing:0px"><flowRegion
         id="flowRegion3052"><rect
           id="rect3054"
           width="150.49506"
           height="45.544556"
           x="348.51486"
           y="8.4222059"
           style="font-size:20px" /></flowRegion><flowPara
         id="flowPara3056" /></flowRoot>    <text
       xml:space="preserve"
       style="font-size:20px;font-style:normal;font-weight:normal;line-height:125%;letter-spacing:0px;word-spacing:0px;fill:#000000;fill-opacity:1;stroke:none;font-family:Sans"
       x="345.54456"
       y="43.075672"
       id="text3058"
       sodipodi:linespacing="125%"
       transform="translate(38.604599,94.436106)"><tspan
         sodipodi:role="line"
         id="tspan3060"
         x="345.54456"
         y="43.075672" /></text>
    <g
       style="font-size:18px;font-style:normal;font-weight:bold;line-height:125%;letter-spacing:0px;word-spacing:0px;fill:#000000;fill-opacity:1;stroke:none;font-family:Sans;-inkscape-font-specification:Sans Bold"
       id="text3062">
      <path
         d="m 392.81143,117.4194 3.38379,0 0,13.12207 -3.38379,0 0,-13.12207"
         style="fill:#000000"
         id="path3094" />
      <path
         d="m 409.28214,124.54733 0,5.99414 -3.16407,0 0,-0.97558 0,-3.61231 c -10e-6,-0.8496 -0.0205,-1.43554 -0.0615,-1.75781 -0.0352,-0.32226 -0.0996,-0.55956 -0.19336,-0.71191 -0.12306,-0.20507 -0.29005,-0.36328 -0.50098,-0.47461 -0.21094,-0.11718 -0.45118,-0.17578 -0.7207,-0.17578 -0.65626,0 -1.17188,0.25489 -1.54687,0.76464 -0.37501,0.50392 -0.56251,1.20411 -0.5625,2.10059 l 0,4.84277 -3.14649,0 0,-9.84375 3.14649,0 0,1.44141 c 0.4746,-0.57421 0.9785,-0.99608 1.51171,-1.26563 0.5332,-0.27538 1.12207,-0.41307 1.76661,-0.41308 1.1367,1e-5 1.99803,0.34864 2.58398,1.0459 0.59179,0.69727 0.88768,1.71094 0.8877,3.04101"
         style="fill:#000000"
         id="path3096" />
      <path
         d="m 419.36319,116.86569 3.17285,0 0,2.56641 -3.17285,0 0,-2.56641 m -0.65039,0 0,2.06543 -1.74024,0 c -0.43945,10e-6 -0.74414,0.082 -0.91406,0.2461 -0.16992,0.15821 -0.25489,0.43653 -0.25488,0.83496 l 0,0.68554 6.73242,0 0,9.84375 -3.17285,0 0,-7.59375 -3.55957,0 0,7.59375 -3.17285,0 0,-7.59375 -1.54688,0 0,-2.25 1.54688,0 0,-0.68554 c 0,-1.07226 0.29882,-1.86327 0.89648,-2.37305 0.59766,-0.51561 1.52344,-0.77342 2.77735,-0.77344 l 2.4082,0"
         style="fill:#000000"
         id="path3098" />
      <path
         d="m 428.06436,125.50534 -3.55078,-4.80762 3.33106,0 2.01269,2.91797 2.03906,-2.91797 3.33106,0 -3.55078,4.79004 3.72656,5.05371 -3.33106,0 -2.21484,-3.11132 -2.18848,3.11132 -3.33105,0 3.72656,-5.03613"
         style="fill:#000000"
         id="path3100" />
      <path
         d="m 447.72549,129.82077 c -0.6211,0.32227 -1.26856,0.56543 -1.94238,0.72949 -0.67384,0.16406 -1.37696,0.2461 -2.10937,0.2461 -2.18556,0 -3.917,-0.60938 -5.19434,-1.82813 -1.27734,-1.22461 -1.91602,-2.88281 -1.91601,-4.97461 -1e-5,-2.09765 0.63867,-3.75585 1.91601,-4.97461 1.27734,-1.22459 3.00878,-1.8369 5.19434,-1.83691 0.73241,10e-6 1.43553,0.082 2.10937,0.24609 0.67382,0.16408 1.32128,0.40724 1.94238,0.72949 l 0,2.71582 c -0.62696,-0.42772 -1.24512,-0.7412 -1.85449,-0.94043 -0.60938,-0.1992 -1.25098,-0.29881 -1.9248,-0.29882 -1.20704,1e-5 -2.15626,0.38673 -2.84766,1.16015 -0.69141,0.77345 -1.03711,1.83985 -1.03711,3.19922 0,1.35352 0.3457,2.417 1.03711,3.19043 0.6914,0.77344 1.64062,1.16016 2.84766,1.16016 0.67382,0 1.31542,-0.0996 1.9248,-0.29883 0.60937,-0.19922 1.22753,-0.51269 1.85449,-0.94043 l 0,2.71582"
         style="fill:#000000"
         id="path3102" />
      <path
         d="m 455.08194,122.71042 c -0.69727,1e-5 -1.23047,0.25196 -1.59961,0.75586 -0.36329,0.49805 -0.54493,1.21875 -0.54492,2.16211 -10e-6,0.94336 0.18163,1.66699 0.54492,2.1709 0.36914,0.49805 0.90234,0.74707 1.59961,0.74707 0.68554,0 1.20995,-0.24902 1.57324,-0.74707 0.36328,-0.50391 0.54492,-1.22754 0.54492,-2.1709 0,-0.94336 -0.18164,-1.66406 -0.54492,-2.16211 -0.36329,-0.5039 -0.8877,-0.75585 -1.57324,-0.75586 m 0,-2.25 c 1.69335,1e-5 3.01464,0.45704 3.96387,1.37109 0.95506,0.91407 1.4326,2.1797 1.43261,3.79688 -1e-5,1.61719 -0.47755,2.88281 -1.43261,3.79687 -0.94923,0.91407 -2.27052,1.3711 -3.96387,1.3711 -1.69922,0 -3.0293,-0.45703 -3.99023,-1.3711 -0.95508,-0.91406 -1.43262,-2.17968 -1.43262,-3.79687 0,-1.61718 0.47754,-2.88281 1.43262,-3.79688 0.96093,-0.91405 2.29101,-1.37108 3.99023,-1.37109"
         style="fill:#000000"
         id="path3104" />
      <path
         d="m 472.66885,124.54733 0,5.99414 -3.16406,0 0,-0.97558 0,-3.61231 c -1e-5,-0.8496 -0.0205,-1.43554 -0.0615,-1.75781 -0.0352,-0.32226 -0.0996,-0.55956 -0.19336,-0.71191 -0.12306,-0.20507 -0.29005,-0.36328 -0.50098,-0.47461 -0.21094,-0.11718 -0.45118,-0.17578 -0.7207,-0.17578 -0.65626,0 -1.17188,0.25489 -1.54688,0.76464 -0.375,0.50392 -0.5625,1.20411 -0.5625,2.10059 l 0,4.84277 -3.14648,0 0,-9.84375 3.14648,0 0,1.44141 c 0.47461,-0.57421 0.97851,-0.99608 1.51172,-1.26563 0.5332,-0.27538 1.12207,-0.41307 1.7666,-0.41308 1.13671,1e-5 1.99804,0.34864 2.58399,1.0459 0.59178,0.69727 0.88768,1.71094 0.88769,3.04101"
         style="fill:#000000"
         id="path3106" />
      <path
         d="m 474.36514,120.69772 3.14649,0 2.45215,6.80274 2.44336,-6.80274 3.15527,0 -3.87598,9.84375 -3.4541,0 -3.86719,-9.84375"
         style="fill:#000000"
         id="path3108" />
      <path
         d="m 497.17276,125.59323 0,0.89649 -7.35645,0 c 0.0762,0.73828 0.34277,1.29199 0.79981,1.66113 0.45703,0.36914 1.0957,0.55371 1.91602,0.55371 0.6621,0 1.33885,-0.0967 2.03027,-0.29004 0.69725,-0.19922 1.4121,-0.49804 2.14453,-0.89648 l 0,2.42578 c -0.74415,0.28125 -1.48829,0.49218 -2.23242,0.63281 -0.74415,0.14648 -1.48829,0.21973 -2.23242,0.21973 -1.78126,0 -3.167,-0.45118 -4.15723,-1.35352 -0.98438,-0.9082 -1.47656,-2.17968 -1.47656,-3.81445 0,-1.60546 0.48339,-2.86816 1.45019,-3.78809 0.97266,-0.91991 2.30859,-1.37987 4.00781,-1.37988 1.54687,1e-5 2.7832,0.46583 3.70899,1.39746 0.93163,0.93165 1.39745,2.17676 1.39746,3.73535 m -3.23437,-1.0459 c -1e-5,-0.59765 -0.17579,-1.07812 -0.52735,-1.4414 -0.34571,-0.36914 -0.79981,-0.55371 -1.3623,-0.55371 -0.60938,0 -1.1045,0.17285 -1.48535,0.51855 -0.38087,0.33985 -0.61817,0.83204 -0.71192,1.47656 l 4.08692,0"
         style="fill:#000000"
         id="path3110" />
      <path
         d="m 506.85831,123.37839 c -0.2754,-0.1289 -0.55079,-0.22265 -0.82617,-0.28125 -0.26954,-0.0644 -0.542,-0.0967 -0.81739,-0.0967 -0.8086,1e-5 -1.43262,0.26075 -1.87207,0.78222 -0.4336,0.51564 -0.65039,1.25685 -0.65039,2.22364 l 0,4.53515 -3.14648,0 0,-9.84375 3.14648,0 0,1.61719 c 0.40429,-0.64452 0.86718,-1.11327 1.38867,-1.40625 0.52734,-0.29882 1.15722,-0.44823 1.88965,-0.44824 0.10546,1e-5 0.21972,0.006 0.34278,0.0176 0.12303,0.006 0.30174,0.0234 0.53613,0.0527 l 0.009,2.84766"
         style="fill:#000000"
         id="path3112" />
      <path
         d="m 511.87686,117.9028 0,2.79492 3.24317,0 0,2.25 -3.24317,0 0,4.17481 c 0,0.45703 0.0908,0.76758 0.27246,0.93164 0.18164,0.1582 0.54199,0.23731 1.08106,0.2373 l 1.61718,0 0,2.25 -2.69824,0 c -1.24219,0 -2.12402,-0.25781 -2.64551,-0.77343 -0.51562,-0.52149 -0.77343,-1.40332 -0.77343,-2.64551 l 0,-4.17481 -1.56446,0 0,-2.25 1.56446,0 0,-2.79492 3.14648,0"
         style="fill:#000000"
         id="path3114" />
      <path
         d="m 521.73819,122.71042 c -0.69727,1e-5 -1.23047,0.25196 -1.59961,0.75586 -0.36329,0.49805 -0.54493,1.21875 -0.54492,2.16211 -10e-6,0.94336 0.18163,1.66699 0.54492,2.1709 0.36914,0.49805 0.90234,0.74707 1.59961,0.74707 0.68554,0 1.20995,-0.24902 1.57324,-0.74707 0.36328,-0.50391 0.54492,-1.22754 0.54492,-2.1709 0,-0.94336 -0.18164,-1.66406 -0.54492,-2.16211 -0.36329,-0.5039 -0.8877,-0.75585 -1.57324,-0.75586 m 0,-2.25 c 1.69335,1e-5 3.01464,0.45704 3.96387,1.37109 0.95506,0.91407 1.4326,2.1797 1.43261,3.79688 -10e-6,1.61719 -0.47755,2.88281 -1.43261,3.79687 -0.94923,0.91407 -2.27052,1.3711 -3.96387,1.3711 -1.69922,0 -3.0293,-0.45703 -3.99023,-1.3711 -0.95508,-0.91406 -1.43262,-2.17968 -1.43262,-3.79687 0,-1.61718 0.47754,-2.88281 1.43262,-3.79688 0.96093,-0.91405 2.29101,-1.37108 3.99023,-1.37109"
         style="fill:#000000"
         id="path3116" />
      <path
         d="m 536.74112,123.37839 c -0.2754,-0.1289 -0.55079,-0.22265 -0.82617,-0.28125 -0.26954,-0.0644 -0.542,-0.0967 -0.81739,-0.0967 -0.8086,1e-5 -1.43262,0.26075 -1.87207,0.78222 -0.43359,0.51564 -0.65039,1.25685 -0.65039,2.22364 l 0,4.53515 -3.14648,0 0,-9.84375 3.14648,0 0,1.61719 c 0.4043,-0.64452 0.86719,-1.11327 1.38868,-1.40625 0.52733,-0.29882 1.15721,-0.44823 1.88964,-0.44824 0.10546,1e-5 0.21972,0.006 0.34278,0.0176 0.12304,0.006 0.30175,0.0234 0.53613,0.0527 l 0.009,2.84766"
         style="fill:#000000"
         id="path3118" />
    </g>
  </g>
</svg>
